HIERARCHY
ROOT root
{
	OFFSET	0	13.1	24.9
	CHANNELS 6  Xposition Yposition Zposition Xrotation Yrotation Zrotation
	JOINT spine_1
	{
		OFFSET	0	9.99999	0
		CHANNELS 3  Xrotation Yrotation Zrotation
		JOINT spine_2
		{
			OFFSET	0	112	-10
			CHANNELS 3  Xrotation Yrotation Zrotation
			JOINT spine_3
			{
				OFFSET	0	206.5	19.3
				CHANNELS 3  Xrotation Yrotation Zrotation
				JOINT spine_4
				{
					OFFSET	0	110.4	14.6
					CHANNELS 3  Xrotation Yrotation Zrotation
					JOINT neck_1
					{
						OFFSET	0	71.8	-50.3
						CHANNELS 3  Xrotation Yrotation Zrotation
						JOINT neck_2
						{
							OFFSET	0	86.2	-25.8
							CHANNELS 3  Xrotation Yrotation Zrotation
							JOINT head_ee
							{
								OFFSET	0	179.8	-8.7
								CHANNELS 3  Xrotation Yrotation Zrotation
								End Site
								{
									OFFSET	1	0	0
								}
							}
						}
					}
					JOINT left_clavicle
					{
						OFFSET	-43.2	22.4	-70.8
						CHANNELS 3  Xrotation Yrotation Zrotation
						JOINT left_shoulder
						{
							OFFSET	-93.9	-5.79999	48.7
							CHANNELS 3  Xrotation Yrotation Zrotation
							JOINT left_elbow
							{
								OFFSET	-291.4	-30.8	15.2
								CHANNELS 3  Xrotation Yrotation Zrotation
								JOINT left_lowarm_twist
								{
									OFFSET	-110.7	-3.89999	13.6
									CHANNELS 3  Xrotation Yrotation Zrotation
									JOINT left_hand
									{
										OFFSET	-110.7	-3.89999	13.6
										CHANNELS 3  Xrotation Yrotation Zrotation
										JOINT left_ee
										{
											OFFSET	-80.8	-5.10001	12.1
											CHANNELS 3  Xrotation Yrotation Zrotation
											End Site
											{
												OFFSET	1	0	0
											}
										}
									}
								}
							}
						}
					}
					JOINT right_clavicle
					{
						OFFSET	43.2	22.4	-70.8
						CHANNELS 3  Xrotation Yrotation Zrotation
						JOINT right_shoulder
						{
							OFFSET	93.9	-5.79999	48.7
							CHANNELS 3  Xrotation Yrotation Zrotation
							JOINT right_elbow
							{
								OFFSET	291.4	-30.8	15.2
								CHANNELS 3  Xrotation Yrotation Zrotation
								JOINT right_lowarm_twist
								{
									OFFSET	110.7	-3.89999	13.6
									CHANNELS 3  Xrotation Yrotation Zrotation
									JOINT right_hand
									{
										OFFSET	110.7	-3.89999	13.6
										CHANNELS 3  Xrotation Yrotation Zrotation
										JOINT right_ee
										{
											OFFSET	80.8	-5.10001	12.1
											CHANNELS 3  Xrotation Yrotation Zrotation
											End Site
											{
												OFFSET	1	0	0
											}
										}
									}
								}
							}
						}
					}
				}
			}
		}
	}
	JOINT left_hip
	{
		OFFSET	-82.8	-127.5	0.300001
		CHANNELS 3  Xrotation Yrotation Zrotation
		JOINT left_knee
		{
			OFFSET	-28.2	-396.7	2.2
			CHANNELS 3  Xrotation Yrotation Zrotation
			JOINT left_ankle
			{
				OFFSET	-11.7	-411.3	35.4
				CHANNELS 3  Xrotation Yrotation Zrotation
				JOINT left_toes
				{
					OFFSET	0	-60	-88.6
					CHANNELS 3  Xrotation Yrotation Zrotation
					JOINT left_foot_ee
					{
						OFFSET	-22.5	-16.5	-42.2
						CHANNELS 3  Xrotation Yrotation Zrotation
						End Site
						{
							OFFSET	1	0	0
						}
					}
				}
			}
		}
	}
	JOINT right_hip
	{
		OFFSET	82.8	-127.5	0.300001
		CHANNELS 3  Xrotation Yrotation Zrotation
		JOINT right_knee
		{
			OFFSET	28.2	-396.7	2.2
			CHANNELS 3  Xrotation Yrotation Zrotation
			JOINT right_ankle
			{
				OFFSET	11.7	-411.3	35.4
				CHANNELS 3  Xrotation Yrotation Zrotation
				JOINT right_toes
				{
					OFFSET	0	-60	-88.6
					CHANNELS 3  Xrotation Yrotation Zrotation
					JOINT right_foot_ee
					{
						OFFSET	22.5	-16.5	-42.2
						CHANNELS 3  Xrotation Yrotation Zrotation
						End Site
						{
							OFFSET	1	0	0
						}
					}
				}
			}
		}
	}
}
MOTION
Frames: 5
Frame Time: 0.02
979.077630807 725.719 -1512.90524845 1.35960219403 52.7048262308 -2.12796567989 2.40898 0.522572 0.906076 2.40932 0.46386 0.937489 2.41694 0.29905 1.0023 2.41583 0.453585 0.942502 -16.3874 17.4224 -2.29777 -17.8292 34.6942 4.66135 -0.0 0.0 -0.0 -2.94304 20.8238 -1.83443 -27.8681 -8.01328 74.7858 0.251239 -7.09452 0.0155745 3.30315 0.104614 -0.408878 3.69944 -19.6989 16.3334 -0.0 0.0 -0.0 9.41866 28.1405 -17.3287 -9.05915 40.4968 -61.815 1.52024 36.9802 -0.508399 8.85868 -0.226866 1.10774 4.57766 -29.4908 -39.7248 0.0 0.0 0.0 9.84832 21.4774 -3.78093 -48.286 -1.0762 7.11665 -21.4592 -28.0137 4.02526 30.3704 -0.0 -0.0 -0.0 0.0 -0.0 11.8953 28.9045 -9.65894 -24.3134 -0.219555 -3.69672 18.8043 -1.64188 2.59365 11.9553 -0.0 -0.0 0.0 0.0 0.0 
970.691587812 730.472 -1529.48347819 1.29212068443 49.6582309072 -2.15704009794 2.50774 0.620061 0.911066 2.50803 0.560833 0.948673 2.51736 0.394568 1.02899 2.51631 0.552119 0.95377 -17.3467 17.2013 -1.62968 -18.8664 33.9194 5.5094 -0.0 0.0 -0.0 -2.61017 22.2088 -1.09332 -28.4812 -7.56517 73.845 0.218674 -6.1826 0.0118097 3.39339 0.10714 -0.420128 3.35969 -16.9287 15.4107 -0.0 0.0 -0.0 8.97141 28.6216 -16.2812 -7.84839 40.8242 -61.4102 1.73574 40.6866 -0.643604 9.37522 -0.234777 1.17325 4.13353 -27.3425 -36.3034 0.0 0.0 0.0 19.2516 22.2243 -9.39146 -46.4641 -0.92835 6.87835 -20.9131 -28.1837 3.93154 30.6924 -0.0 -0.0 -0.0 0.0 -0.0 8.37059 27.3269 -7.04916 -22.2041 -0.262946 -3.37597 19.1151 -1.21799 2.63469 11.0176 -0.0 -0.0 0.0 0.0 0.0 
958.637661358 731.42 -1542.15991529 -1.09590324512 48.8226116245 0.215006991001 2.66597 0.590352 0.856758 2.66622 0.53464 0.892585 2.67457 0.380759 0.968277 2.67365 0.528895 0.896 -17.9241 17.0677 -1.69101 -19.5082 33.7036 5.59287 -0.0 0.0 -0.0 -2.48257 23.4694 -0.683147 -29.0207 -8.35932 72.6889 0.220491 -6.23357 0.0120061 3.23701 0.102751 -0.400634 3.22404 -14.943 15.4476 -0.0 0.0 -0.0 8.52344 28.4724 -15.3089 -6.47399 40.6812 -61.7438 1.88586 43.0472 -0.743814 9.71321 -0.239634 1.21615 3.92142 -25.8043 -34.5942 0.0 0.0 0.0 22.925 22.3112 -11.1643 -46.6477 -0.942903 6.90257 -20.7953 -27.8238 3.8911 30.1563 -0.0 -0.0 -0.0 0.0 -0.0 9.07033 28.2446 -7.69362 -19.869 -0.297175 -3.01931 18.2807 -2.59031 2.52372 11.0414 -0.0 -0.0 0.0 0.0 0.0 
924.311353041 730.177 -1541.12994628 -2.79555348676 51.5532321406 2.92128158867 2.97898 0.294221 0.84386 2.97934 0.239929 0.860871 2.98286 0.100001 0.888066 2.98184 0.238995 0.86113 -17.2768 16.7903 -1.54998 -18.7004 33.0875 5.35553 -0.0 0.0 -0.0 -2.24987 24.0315 -0.265105 -32.0342 -8.16813 71.1464 0.233447 -6.59671 0.0134538 1.91804 0.0636201 -0.236704 2.74127 -7.06157 15.6996 -0.0 0.0 -0.0 8.47842 27.1039 -15.3633 -3.08494 39.6987 -62.0119 2.24267 48.0023 -0.998658 10.9922 -0.255718 1.37872 2.59893 -20.3032 -24.4179 0.0 0.0 0.0 26.3134 16.7736 -14.0077 -45.8852 -0.88298 6.80169 -17.6416 -26.7844 3.25497 31.4556 -0.0 -0.0 -0.0 0.0 -0.0 8.99043 32.0455 -9.49001 -20.4799 -0.289625 -3.11275 17.2578 -10.3593 2.38843 10.1684 -0.0 -0.0 0.0 0.0 0.0 
905.547352597 728.496 -1541.67264454 -3.56903565628 53.3041232148 4.08629884937 2.98464 0.300447 0.835016 2.98499 0.246706 0.85244 2.98858 0.108121 0.880809 2.98758 0.245866 0.852682 -16.5808 16.4539 -1.47424 -17.8392 32.3862 5.02766 -0.0 0.0 -0.0 -2.10271 23.3881 -0.176065 -32.8614 -8.17753 71.3431 0.25053 -7.07471 0.0154871 1.01212 0.03456 -0.124644 2.5988 -4.63823 15.7418 -0.0 0.0 -0.0 8.95713 26.8949 -16.4453 -2.28331 37.5589 -61.3877 2.32604 49.0393 -1.06112 11.6027 -0.262116 1.45644 1.75768 -16.831 -17.9084 0.0 0.0 0.0 28.2501 14.0987 -15.6599 -44.7556 -0.796695 6.6508 -16.541 -26.0701 3.02333 32.2603 -0.0 -0.0 -0.0 0.0 -0.0 8.54683 31.2598 -9.6081 -20.6623 -0.287177 -3.14063 19.2437 -10.1137 2.63993 10.2239 -0.0 -0.0 0.0 0.0 0.0 
